<svg id="icon" xmlns="http://www.w3.org/2000/svg" xmlns:xlink="http://www.w3.org/1999/xlink" viewBox="0 0 128 128"><defs><style>.cls-1,.cls-12,.cls-13,.cls-14,.cls-16,.cls-18,.cls-19,.cls-3,.cls-8,.cls-9{fill:none;}.cls-2{fill:#26126e;}.cls-3{stroke:#26126e;stroke-width:0.29px;}.cls-12,.cls-13,.cls-14,.cls-16,.cls-18,.cls-19,.cls-3,.cls-8,.cls-9{stroke-miterlimit:10;}.cls-4{fill:#80effe;}.cls-5{fill:#6c5ba7;}.cls-6{fill:#2d1582;}.cls-7{fill:#42c5f4;}.cls-16,.cls-8,.cls-9{stroke:#fff;}.cls-12,.cls-19,.cls-8{stroke-linecap:round;}.cls-8{stroke-width:1.09px;}.cls-14,.cls-9{stroke-width:1.27px;}.cls-10{fill:#fff;}.cls-11{fill:#ef3574;}.cls-12,.cls-14,.cls-19{stroke:#ef3574;}.cls-12{stroke-width:0.34px;}.cls-13,.cls-18{stroke:#6c5ba7;}.cls-13{stroke-width:0.16px;}.cls-14{stroke-dasharray:5.07 3.17;}.cls-15{clip-path:url(#clip-path);}.cls-16{stroke-width:1.9px;}.cls-17{fill:#ffcd83;}.cls-18{stroke-width:0.16px;}.cls-19{stroke-width:0.4px;}</style><clipPath id="clip-path"><path class="cls-1" d="M115.35,17.16H45.7l-4.14,59h69.37A2.38,2.38,0,0,0,113.3,74l3.91-48.15.39-4.72.11-1.42A2.37,2.37,0,0,0,115.35,17.16Z"/></clipPath></defs><title>6</title><path class="cls-2" d="M47.37,44.28a12.77,12.77,0,0,1,2.18-13.56c5.52-6.3,15.35-6.49,15.35-6.49s-2.49,1.62-3.61,8S56.82,46.27,47.37,44.28Z"/><path class="cls-3" d="M27.59,25c1.91-1.17,7.24,1.52,9.68,4.58l1.44.29"/><path class="cls-3" d="M43,42.5c1.84.85,4.78,5.42,4.78,5.42s-1-2.81.13-4.65"/><path class="cls-4" d="M120.83,96.72c0,3-26.26,5.48-61.81,5.48S3,99.75,3,96.72s20.47-5.48,56-5.48S120.83,93.69,120.83,96.72Z"/><path class="cls-5" d="M120.82,18l-4.56,61.41a3.52,3.52,0,0,1-3.51,3.25H14.16a3.52,3.52,0,0,1-3.51-3.79l4.56-61.41a3.52,3.52,0,0,1,3.51-3.25h98.59A3.52,3.52,0,0,1,120.82,18Z"/><path class="cls-6" d="M123.94,18l-4.56,61.41a3.52,3.52,0,0,1-3.51,3.25h-3.12a3.52,3.52,0,0,0,3.51-3.25L120.82,18a3.52,3.52,0,0,0-3.51-3.79h3.11A3.52,3.52,0,0,1,123.94,18Z"/><path class="cls-7" d="M117.71,19.72l-.11,1.42-2.94,4.72L83.37,76.18H34.22l4.14-59h77A2.37,2.37,0,0,1,117.71,19.72Z"/><path class="cls-4" d="M20.54,17.16a2.37,2.37,0,0,0-2.36,2.17L13.76,73.62a2.37,2.37,0,0,0,2.36,2.57H41.56l4.14-59Z"/><path class="cls-7" d="M117.6,21.14l-.39,4.72L113.3,74a2.38,2.38,0,0,1-2.36,2.17H83.37l31.29-50.32Z"/><polygon class="cls-4" points="78.34 90.44 54.09 90.44 50.96 82.62 75.21 82.62 78.34 90.44"/><path class="cls-6" d="M80.39,93.88H59.28c0-3,2.17-3.44,2.17-3.44H78.34l-3.13-7.82h3.68l3.47,8.3A2.13,2.13,0,0,1,80.39,93.88Z"/><path class="cls-5" d="M61.45,90.44s-2.17.48-2.17,3.44H35.37a3.09,3.09,0,0,1,3-3.44Z"/><line class="cls-8" x1="33.15" y1="25.1" x2="39.02" y2="25.1"/><line class="cls-8" x1="32.94" y1="28.9" x2="42.47" y2="28.9"/><line class="cls-8" x1="32.36" y1="33.06" x2="40.5" y2="33.06"/><line class="cls-8" x1="31.67" y1="43.04" x2="37.54" y2="43.04"/><line class="cls-8" x1="31.46" y1="46.83" x2="40.99" y2="46.83"/><line class="cls-8" x1="30.88" y1="51" x2="39.02" y2="51"/><line class="cls-8" x1="30.69" y1="60.57" x2="36.56" y2="60.57"/><line class="cls-8" x1="30.47" y1="64.37" x2="40" y2="64.37"/><line class="cls-8" x1="29.89" y1="68.54" x2="38.04" y2="68.54"/><line class="cls-9" x1="67.37" y1="52.09" x2="55.84" y2="23.49"/><line class="cls-9" x1="49.4" y1="52.09" x2="49.4" y2="67.49"/><path class="cls-4" d="M117.71,19.72l-.11,1.42-.39,4.72h-2.55L45.08,26l.51-8.83h69.76A2.37,2.37,0,0,1,117.71,19.72Z"/><rect class="cls-7" x="19.71" y="42.27" width="6.24" height="10.84" transform="translate(-25.34 69.5) rotate(-88.79)"/><path class="cls-10" d="M20.31,44.52a.89.89,0,0,1-1.75,0l.16-.42a.92.92,0,0,1,.73-.31A.82.82,0,0,1,20.31,44.52Z"/><path class="cls-11" d="M22.06,44.55a.89.89,0,0,1-1.75,0l.16-.42a.92.92,0,0,1,.73-.31A.82.82,0,0,1,22.06,44.55Z"/><path class="cls-10" d="M23.75,44.59a.85.85,0,0,1-1.69,0l.16-.42a.87.87,0,0,1,.7-.31A.8.8,0,0,1,23.75,44.59Z"/><path class="cls-11" d="M25.5,44.62a.89.89,0,0,1-1.75,0l.16-.42a.92.92,0,0,1,.73-.31A.82.82,0,0,1,25.5,44.62Z"/><path class="cls-10" d="M27.23,44.66a.87.87,0,0,1-1.73,0l.16-.42a.9.9,0,0,1,.72-.31A.81.81,0,0,1,27.23,44.66Z"/><path class="cls-11" d="M28.92,44.7a.85.85,0,0,1-1.69,0l.16-.42a.91.91,0,0,1,1.41,0Z"/><polygon class="cls-11" points="28.92 44.7 27.23 44.66 26.83 42.88 28.36 42.92 28.79 44.29 28.92 44.7"/><path class="cls-10" d="M27.23,44.66l-1.73,0c-.09-.63-.19-1.38-.24-1.77l1.57,0Z"/><path class="cls-11" d="M25.5,44.62l-1.75,0,0-1.77,1.55,0C25.31,43.25,25.41,44,25.5,44.62Z"/><polygon class="cls-10" points="23.75 44.59 22.06 44.55 22.17 42.79 23.71 42.82 23.75 44.59"/><polygon class="cls-11" points="22.17 42.79 22.06 44.55 20.31 44.52 20.6 42.75 22.17 42.79"/><polygon class="cls-10" points="20.6 42.75 20.31 44.52 18.56 44.48 19.03 42.72 20.6 42.75"/><path class="cls-11" d="M18.56,44.48a.86.86,0,0,1-1.7,0L17,44a.88.88,0,0,1,.71-.31A.8.8,0,0,1,18.56,44.48Z"/><polygon class="cls-11" points="19.03 42.72 18.56 44.48 16.86 44.44 17.01 44.02 17.52 42.69 19.03 42.72"/><path class="cls-2" d="M27.22,48l0,1.53a.41.41,0,0,1-.42.4L24,49.84a.41.41,0,0,1-.4-.42l0-1.53A1.81,1.81,0,0,1,27.22,48Z"/><path class="cls-10" d="M24.34,48a.33.33,0,0,1-.37.32.34.34,0,0,1-.36-.34c0-.08.17-.15.37-.14S24.35,47.92,24.34,48Z"/><path class="cls-11" d="M25,48a.34.34,0,0,1-.68,0c0-.08.16-.15.35-.15S25,47.93,25,48Z"/><path class="cls-10" d="M25.8,48A.39.39,0,0,1,25,48c0-.08.18-.15.39-.14S25.81,48,25.8,48Z"/><path class="cls-11" d="M26.48,48a.34.34,0,0,1-.68,0c0-.08.16-.15.34-.15S26.49,48,26.48,48Z"/><path class="cls-10" d="M27.22,48.06a.37.37,0,0,1-.73,0c0-.08.17-.15.37-.15S27.22,48,27.22,48.06Z"/><path class="cls-10" d="M25.44,46a2,2,0,0,0-1.1,2l-.73,0A1.86,1.86,0,0,1,25.44,46Z"/><path class="cls-10" d="M25.46,46s.47,0,.42,2L25,48S24.93,46.17,25.46,46Z"/><path class="cls-11" d="M25.46,46s-.41.09-.43,2h-.68S24.19,46.28,25.46,46Z"/><path class="cls-10" d="M25.46,46a2,2,0,0,1,1,2l.73,0A1.87,1.87,0,0,0,25.46,46Z"/><path class="cls-11" d="M25.46,46s.41.1.35,2h.68S26.71,46.34,25.46,46Z"/><path class="cls-2" d="M17.26,50.48H28.17a.46.46,0,0,1,.46.46v.56a0,0,0,0,1,0,0H16.81a0,0,0,0,1,0,0v-.56a.46.46,0,0,1,.46-.46Z" transform="translate(1.08 -0.47) rotate(1.21)"/><path class="cls-2" d="M21.18,47.06l-.07,3.49-2.54-.05L18.64,47a1.19,1.19,0,0,1,1.21-1.16H20A1.19,1.19,0,0,1,21.18,47S21.18,47,21.18,47.06Z"/><path class="cls-7" d="M20.82,47.16l0,2-1.83,0,0-2a.86.86,0,0,1,.88-.84H20a.86.86,0,0,1,.84.85S20.82,47.16,20.82,47.16Z"/><path class="cls-11" d="M18.54,41.58h8.8a1,1,0,0,1,1,1v.19a0,0,0,0,1,0,0H17.53a0,0,0,0,1,0,0V42.6A1,1,0,0,1,18.54,41.58Z" transform="translate(0.9 -0.48) rotate(1.21)"/><rect class="cls-7" x="21.4" y="24.01" width="6.24" height="10.84" transform="translate(-5.41 53.32) rotate(-88.79)"/><path class="cls-10" d="M22,26.25a.89.89,0,0,1-1.75,0l.16-.42a.92.92,0,0,1,.73-.31A.82.82,0,0,1,22,26.25Z"/><path class="cls-11" d="M23.76,26.28a.89.89,0,0,1-1.75,0l.16-.42a.92.92,0,0,1,.73-.31A.82.82,0,0,1,23.76,26.28Z"/><path class="cls-10" d="M25.44,26.32a.85.85,0,0,1-1.69,0l.16-.42a.87.87,0,0,1,.7-.31A.8.8,0,0,1,25.44,26.32Z"/><path class="cls-11" d="M27.19,26.36a.89.89,0,0,1-1.75,0l.16-.42a.92.92,0,0,1,.73-.31A.82.82,0,0,1,27.19,26.36Z"/><path class="cls-10" d="M28.92,26.39a.87.87,0,0,1-1.73,0l.16-.42a.9.9,0,0,1,.72-.31A.81.81,0,0,1,28.92,26.39Z"/><path class="cls-11" d="M30.61,26.43a.85.85,0,0,1-1.69,0l.16-.42a.91.91,0,0,1,1.41,0Z"/><polygon class="cls-11" points="30.61 26.43 28.92 26.39 28.53 24.62 30.06 24.65 30.49 26.02 30.61 26.43"/><path class="cls-10" d="M28.92,26.39l-1.73,0C27.11,25.73,27,25,27,24.58l1.57,0Z"/><path class="cls-11" d="M27.19,26.36l-1.75,0,0-1.77,1.55,0C27,25,27.11,25.73,27.19,26.36Z"/><polygon class="cls-10" points="25.44 26.32 23.75 26.29 23.87 24.52 25.41 24.55 25.44 26.32"/><polygon class="cls-11" points="23.87 24.52 23.75 26.29 22 26.25 22.29 24.49 23.87 24.52"/><polygon class="cls-10" points="22.29 24.49 22 26.25 20.25 26.21 20.73 24.45 22.29 24.49"/><path class="cls-11" d="M20.25,26.21a.86.86,0,0,1-1.7,0l.16-.42a.88.88,0,0,1,.71-.31A.8.8,0,0,1,20.25,26.21Z"/><polygon class="cls-11" points="20.73 24.45 20.25 26.21 18.55 26.18 18.71 25.76 19.21 24.42 20.73 24.45"/><path class="cls-2" d="M28.92,29.7l0,1.53a.41.41,0,0,1-.42.4l-2.79-.06a.41.41,0,0,1-.4-.42l0-1.53A1.81,1.81,0,0,1,28.92,29.7Z"/><path class="cls-10" d="M26,29.74a.33.33,0,0,1-.37.32.34.34,0,0,1-.36-.34c0-.08.17-.15.37-.14S26,29.65,26,29.74Z"/><path class="cls-11" d="M26.72,29.75a.34.34,0,0,1-.68,0c0-.08.16-.15.35-.15S26.72,29.67,26.72,29.75Z"/><path class="cls-10" d="M27.5,29.77a.39.39,0,0,1-.78,0c0-.08.18-.15.39-.14S27.5,29.68,27.5,29.77Z"/><path class="cls-11" d="M28.18,29.78a.34.34,0,0,1-.68,0c0-.08.16-.15.34-.15S28.18,29.7,28.18,29.78Z"/><path class="cls-10" d="M28.91,29.8a.37.37,0,0,1-.73,0c0-.08.17-.15.37-.15S28.91,29.71,28.91,29.8Z"/><path class="cls-10" d="M27.14,27.76a2,2,0,0,0-1.1,2l-.73,0A1.86,1.86,0,0,1,27.14,27.76Z"/><path class="cls-10" d="M27.15,27.77s.47,0,.42,2l-.85,0S26.62,27.91,27.15,27.77Z"/><path class="cls-11" d="M27.15,27.77s-.41.09-.43,2H26S25.88,28,27.15,27.77Z"/><path class="cls-10" d="M27.15,27.77a2,2,0,0,1,1,2l.73,0A1.87,1.87,0,0,0,27.15,27.77Z"/><path class="cls-11" d="M27.15,27.77s.41.1.35,2h.68S28.41,28.07,27.15,27.77Z"/><path class="cls-2" d="M19,32.22H29.87a.46.46,0,0,1,.46.46v.56a0,0,0,0,1,0,0H18.5a0,0,0,0,1,0,0v-.56a.46.46,0,0,1,.46-.46Z" transform="translate(0.7 -0.51) rotate(1.21)"/><path class="cls-2" d="M22.87,28.79l-.07,3.49-2.54-.05.07-3.49a1.19,1.19,0,0,1,1.21-1.16h.16a1.19,1.19,0,0,1,1.16,1.18S22.87,28.78,22.87,28.79Z"/><path class="cls-7" d="M22.52,28.9l0,2-1.83,0,0-2a.86.86,0,0,1,.88-.84h.12a.86.86,0,0,1,.84.85S22.52,28.89,22.52,28.9Z"/><path class="cls-11" d="M20.24,23.31H29a1,1,0,0,1,1,1v.19a0,0,0,0,1,0,0H19.22a0,0,0,0,1,0,0v-.21A1,1,0,0,1,20.24,23.31Z" transform="translate(0.51 -0.52) rotate(1.21)"/><rect class="cls-5" x="18.37" y="60.27" width="6.24" height="10.84" transform="translate(-44.64 85.78) rotate(-88.79)"/><path class="cls-10" d="M19,62.51a.89.89,0,0,1-1.75,0l.16-.42a.92.92,0,0,1,.73-.31A.82.82,0,0,1,19,62.51Z"/><path class="cls-11" d="M20.72,62.55a.89.89,0,0,1-1.75,0l.16-.42a.92.92,0,0,1,.73-.31A.82.82,0,0,1,20.72,62.55Z"/><path class="cls-10" d="M22.41,62.59a.85.85,0,0,1-1.69,0l.16-.42a.87.87,0,0,1,.7-.31A.8.8,0,0,1,22.41,62.59Z"/><path class="cls-11" d="M24.16,62.62a.89.89,0,0,1-1.75,0l.16-.42a.92.92,0,0,1,.73-.31A.82.82,0,0,1,24.16,62.62Z"/><path class="cls-10" d="M25.89,62.66a.87.87,0,0,1-1.73,0l.16-.42a.9.9,0,0,1,.72-.31A.81.81,0,0,1,25.89,62.66Z"/><path class="cls-11" d="M27.58,62.7a.85.85,0,0,1-1.69,0l.16-.42a.91.91,0,0,1,1.41,0Z"/><polygon class="cls-11" points="27.58 62.7 25.89 62.66 25.49 60.88 27.02 60.92 27.45 62.29 27.58 62.7"/><path class="cls-10" d="M25.89,62.66l-1.73,0c-.09-.63-.19-1.38-.24-1.77l1.57,0Z"/><path class="cls-11" d="M24.16,62.62l-1.75,0,0-1.77,1.55,0C24,61.25,24.07,62,24.16,62.62Z"/><polygon class="cls-10" points="22.41 62.59 20.72 62.55 20.83 60.78 22.38 60.82 22.41 62.59"/><polygon class="cls-11" points="20.83 60.78 20.72 62.55 18.97 62.51 19.26 60.75 20.83 60.78"/><polygon class="cls-10" points="19.26 60.75 18.97 62.51 17.22 62.48 17.69 60.72 19.26 60.75"/><path class="cls-11" d="M17.22,62.48a.86.86,0,0,1-1.7,0l.16-.42a.88.88,0,0,1,.71-.31A.8.8,0,0,1,17.22,62.48Z"/><polygon class="cls-11" points="17.69 60.72 17.22 62.48 15.52 62.44 15.67 62.02 16.18 60.69 17.69 60.72"/><path class="cls-2" d="M25.88,66l0,1.53a.41.41,0,0,1-.42.4l-2.79-.06a.41.41,0,0,1-.4-.42l0-1.53A1.81,1.81,0,0,1,25.88,66Z"/><path class="cls-10" d="M23,66a.33.33,0,0,1-.37.32.34.34,0,0,1-.36-.34c0-.08.17-.15.37-.14S23,65.92,23,66Z"/><path class="cls-11" d="M23.69,66A.34.34,0,0,1,23,66c0-.08.16-.15.35-.15S23.69,65.93,23.69,66Z"/><path class="cls-10" d="M24.46,66a.39.39,0,0,1-.78,0c0-.08.18-.15.39-.14S24.47,65.95,24.46,66Z"/><path class="cls-11" d="M25.14,66a.34.34,0,0,1-.68,0c0-.08.16-.15.34-.15S25.15,66,25.14,66Z"/><path class="cls-10" d="M25.88,66.06a.37.37,0,0,1-.73,0c0-.08.17-.15.37-.15S25.88,66,25.88,66.06Z"/><path class="cls-10" d="M24.1,64A2,2,0,0,0,23,66l-.73,0A1.86,1.86,0,0,1,24.1,64Z"/><path class="cls-10" d="M24.12,64s.47,0,.42,2l-.85,0S23.59,64.17,24.12,64Z"/><path class="cls-11" d="M24.12,64s-.41.09-.43,2H23S22.85,64.28,24.12,64Z"/><path class="cls-10" d="M24.12,64a2,2,0,0,1,1,2l.73,0A1.87,1.87,0,0,0,24.12,64Z"/><path class="cls-11" d="M24.12,64s.41.1.35,2h.68S25.37,64.34,24.12,64Z"/><path class="cls-2" d="M15.92,68.48H26.83a.46.46,0,0,1,.46.46v.56a0,0,0,0,1,0,0H15.47a0,0,0,0,1,0,0v-.56A.46.46,0,0,1,15.92,68.48Z" transform="translate(1.46 -0.44) rotate(1.21)"/><path class="cls-2" d="M19.84,65.06l-.07,3.49-2.54-.05L17.3,65a1.19,1.19,0,0,1,1.21-1.16h.16A1.19,1.19,0,0,1,19.84,65S19.84,65,19.84,65.06Z"/><path class="cls-5" d="M19.48,65.16l0,2-1.83,0,0-2a.86.86,0,0,1,.88-.84h.12a.86.86,0,0,1,.84.85S19.48,65.15,19.48,65.16Z"/><path class="cls-11" d="M17.2,59.58H26a1,1,0,0,1,1,1v.21a0,0,0,0,1,0,0H16.19a0,0,0,0,1,0,0v-.21A1,1,0,0,1,17.2,59.58Z" transform="translate(1.28 -0.44) rotate(1.21)"/><path class="cls-11" d="M59.21,35.85a2.36,2.36,0,0,0-2.35,2.27,3.45,3.45,0,0,0,.08.69,17.74,17.74,0,0,0,1.89,4.39c.22.4.54.4.77,0,.5-.89,2-3.87,2-5.08A2.32,2.32,0,0,0,59.21,35.85Zm0,3.65a1.29,1.29,0,1,1,1.29-1.29A1.29,1.29,0,0,1,59.25,39.5Z"/><path class="cls-12" d="M61,42.69c.72.18,1.2.47,1.2.8,0,.55-1.31,1-2.92,1s-2.92-.45-2.92-1c0-.31.4-.58,1-.76"/><path class="cls-11" d="M96.54,61.08a2.36,2.36,0,0,0-2.35,2.27,3.45,3.45,0,0,0,.08.69,17.74,17.74,0,0,0,1.89,4.39c.22.4.54.4.77,0,.5-.89,2-3.87,2-5.08A2.32,2.32,0,0,0,96.54,61.08Zm0,3.65a1.29,1.29,0,1,1,1.29-1.29A1.29,1.29,0,0,1,96.58,64.73Z"/><path class="cls-12" d="M98.31,67.92c.72.18,1.2.47,1.2.8,0,.55-1.31,1-2.92,1s-2.92-.45-2.92-1c0-.31.4-.58,1-.76"/><path class="cls-11" d="M73.71,64.9a2.36,2.36,0,0,0-2.35,2.27,3.45,3.45,0,0,0,.08.69,17.74,17.74,0,0,0,1.89,4.39c.22.4.54.4.77,0,.5-.89,2-3.87,2-5.08A2.32,2.32,0,0,0,73.71,64.9Zm0,3.65A1.29,1.29,0,1,1,75,67.26,1.29,1.29,0,0,1,73.75,68.55Z"/><path class="cls-12" d="M75.47,71.74c.72.18,1.2.47,1.2.8,0,.55-1.31,1-2.92,1s-2.92-.45-2.92-1c0-.31.4-.58,1-.76"/><path class="cls-13" d="M118,35.53a1.49,1.49,0,0,0-.25.44"/><line class="cls-13" x1="116.58" y1="55.86" x2="116.58" y2="55.86"/><polyline class="cls-14" points="60.5 64.29 81.8 58.14 82.48 41.09"/><g class="cls-15"><polyline class="cls-16" points="114.91 67.49 97.39 41.33 83.37 35.53 67.37 52.09 42.47 52.36"/><polyline class="cls-16" points="40.5 70.06 103.85 51.78 102.96 24.47"/><polyline class="cls-16" points="83.37 35.53 81.8 58.14 94.19 77.55"/><line class="cls-9" x1="59.74" y1="65.01" x2="55.8" y2="77.55"/></g><path class="cls-11" d="M103.37,19.68A2.36,2.36,0,0,0,101,21.94a3.45,3.45,0,0,0,.08.69A17.74,17.74,0,0,0,103,27c.22.4.54.4.77,0,.5-.89,2-3.87,2-5.08A2.32,2.32,0,0,0,103.37,19.68Zm0,3.65A1.29,1.29,0,1,1,104.7,22,1.29,1.29,0,0,1,103.4,23.33Z"/><path class="cls-12" d="M105.13,26.52c.72.18,1.2.47,1.2.8,0,.55-1.31,1-2.92,1s-2.92-.45-2.92-1c0-.31.4-.58,1-.76"/><path class="cls-11" d="M56.35,49.86A2.36,2.36,0,0,0,54,52.13a3.45,3.45,0,0,0,.08.69A17.74,17.74,0,0,0,56,57.21c.22.4.54.4.77,0,.5-.89,2-3.87,2-5.08A2.32,2.32,0,0,0,56.35,49.86Zm0,3.65a1.29,1.29,0,1,1,1.29-1.29A1.29,1.29,0,0,1,56.39,53.51Z"/><path class="cls-12" d="M58.12,56.7c.72.18,1.2.47,1.2.8,0,.55-1.31,1-2.92,1s-2.92-.45-2.92-1c0-.31.4-.58,1-.76"/><polygon class="cls-11" points="101.79 118.11 93.28 118.11 96.18 114.05 104.13 114.05 101.79 118.11"/><path class="cls-11" d="M89.33,118.12H75.52l2.89-4.06H92.23Zm-17.77,0H57.75l2.89-4.06H74.46Z"/><polygon class="cls-11" points="53.8 118.11 45.29 118.11 49 114.05 56.7 114.05 53.8 118.11"/><polygon class="cls-11" points="41.16 117.77 32.66 117.77 36.95 113.71 44.65 113.71 41.16 117.77"/><path class="cls-17" d="M113.11,104.18a4.17,4.17,0,0,1-2.87,1.57h-.93c0-.09,0-.16,0-.23s2.78-3.55,2.93-3.8A1.84,1.84,0,0,1,113.11,104.18Z"/><path class="cls-17" d="M96,37.43c.13.42,2.73,4,2.73,4l-5.82,1.4-.05-.14-.21-.58s-1.53.87-2.24.34-1-2.34-1-2.5c-.58,0-1,.05-.93-.42s.61-1.58.32-2.17-.58-.5-.77-.76a5.08,5.08,0,0,1-.2-3.18l0,0c.13.08.18-.61,1.64-.4s3.91,1.88,4.3,4a7.57,7.57,0,0,0,.84-.5s-.5-1.29.37-1.84,1.34-.27,1.56.58S96.75,37,96,37.43Z"/><path class="cls-6" d="M99.6,31.48a3.06,3.06,0,0,0-2.29-2.9,1.68,1.68,0,0,0-2,.9,5.55,5.55,0,0,0-4.8.58c-2.57,1.43-2.8,3-2.71,3.31l0,0c.13.08.18-.61,1.64-.4s3.91,1.88,4.3,4a7.57,7.57,0,0,0,.84-.5s-.5-1.29.37-1.84,1.34-.27,1.56.58S96.75,37,96,37.43a7.67,7.67,0,0,0,.5,1.08l-3.59,4.28a30.83,30.83,0,0,0-2.07,4c-1.35,3.62-1.94,7.48-1.68,8.38.37,1.27,2.06.68,1.83.16s1-4.52,1.37-5.47c.22-.57,1-2,1.65-3.5h0c.4-.84.78-1.69,1.05-2.4h0l.13-.34c.32-.91,3.33-3.08,4.11-4.31C100.7,37,99.79,32.76,99.6,31.48ZM98,33.1c-.26-.67-1.31-2.62-1.31-2.62s.09-.81.51-.58S98,32,98,33.1Z"/><path class="cls-5" d="M105.73,45.66A28.18,28.18,0,0,0,99,43.44h0a5.8,5.8,0,0,0-4,.46l.13-.34c1.06-3,5.33-5.27,7.84-2.83a8.77,8.77,0,0,1,2.72,4.78C105.73,45.61,105.73,45.66,105.73,45.66Z"/><path class="cls-6" d="M110.54,58.26c.2,3.29-.28,7.25-1.86,9A6.94,6.94,0,0,1,103,69.38l-.21,0c-1.5-.32-3.21-4.32-3.64-6.17a3.7,3.7,0,0,0-1.73-2.45,11.46,11.46,0,0,0,1.08-1.47,15.15,15.15,0,0,1,1.31,1.86A23.46,23.46,0,0,0,101.3,53a25.33,25.33,0,0,0-.61-7.47A3.5,3.5,0,0,0,99,43.44a28.18,28.18,0,0,1,6.71,2.22s0-.06,0-.16a23.61,23.61,0,0,1,2.88,3C111.6,52.13,110.34,55,110.54,58.26Z"/><path class="cls-18" d="M104.44,44.68a3.68,3.68,0,0,1,1.27.83"/><path class="cls-18" d="M97.36,43a3.3,3.3,0,0,1,1.65.39"/><path class="cls-5" d="M101.3,53a23.46,23.46,0,0,1-1.48,8.14,15.15,15.15,0,0,0-1.31-1.86A29.08,29.08,0,0,0,101.3,53Z"/><path class="cls-6" d="M82.55,53,78.62,49a.62.62,0,0,0-.89,0l-.28.28,2.5,2.7c.41.36,1.82,1.8,1.82,1.8A5.19,5.19,0,0,0,82.55,53Z"/><path class="cls-17" d="M83.74,52.61c-.45-.34-1.13-.24-1.19.16s-.23.45-.23.45h0c-.36.37-.53.53-.53.53S80.44,52.39,80,52c-.09-.08-.29-.23-.52.09S80.8,53.79,80.78,54s-.1.56-.13.85.33.65.32.85c0,.4.42.65.71,1.13a.8.8,0,0,0,.9.27A4.87,4.87,0,0,1,83,55.27a2.3,2.3,0,0,1,1.56-1.67A2.08,2.08,0,0,0,83.74,52.61Z"/><path class="cls-11" d="M103.21,73a.87.87,0,0,1-.44.2,22,22,0,0,1-5.23.21c-1.32-.09-3.45.19-5.13.22a6.26,6.26,0,0,1-1.89-.16.83.83,0,0,1-.58-.46c-.38-1.07-1.22-10-1.43-12.34,2.81,1.39,6,2.38,7.73,1.14a6.46,6.46,0,0,0,1.2-1.1,3.7,3.7,0,0,1,1.73,2.45c.44,1.86,2.14,5.86,3.64,6.17l.21,0A14.17,14.17,0,0,1,103.21,73Z"/><path class="cls-6" d="M112.3,101.72c-.08,1.69-3.11,4-3.15,4-.56-.44-4.27-3.66-5.35-4.42s-7.45-3.88-9-4.83a1.18,1.18,0,0,1,0,.17c-1.05-.58-3.31-1.89-3.65-2.81-.45-1.22-.66-7.34-.53-11a49.74,49.74,0,0,1,1.74-9.11c1.67,0,3.8-.31,5.13-.22a22,22,0,0,0,5.23-.21c.47,3.27-1.36,4.76-2.14,6s-1.72,5.52-2.19,7.31-2,4.17-.56,5.41a28.23,28.23,0,0,1,6.55,3.41c1.21,1,4.38,3.85,5.67,4.78.93.66,1.32,1,1.71,1.3A3.3,3.3,0,0,0,112.3,101.72Z"/><path class="cls-2" d="M94.08,104.84a38,38,0,0,0-.27,6.81c0,.08,0,.13,0,.13s.22.14-.37.23c-.18,0-.43,0-.79.06a6,6,0,0,1-2.92-.91h0l-.31-.19,0-.25a63.2,63.2,0,0,0,.22-7.74c-.2-3-.35-6.46-.55-8.81s-1.07-2.87-1-4.1.4-5,.84-9.23a36.57,36.57,0,0,1,1.61-7.35,6.26,6.26,0,0,0,1.89.16,49.74,49.74,0,0,0-1.74,9.11c-.13,3.69.08,9.82.53,11,.34.93,2.6,2.24,3.65,2.81C95.12,98.29,94.54,102.46,94.08,104.84Z"/><path class="cls-17" d="M93.86,111.86A2.1,2.1,0,0,1,92.1,113c-1.2,0-2.31-1.49-2.61-2a7.07,7.07,0,0,0,3.16,1.09A11.32,11.32,0,0,0,93.86,111.86Z"/><path class="cls-4" d="M115.37,101.79a37.65,37.65,0,0,1-1,6.14c-.82,3.13-1.69,6.51-4,8.1l-.32-.35c-.46-.48,0-2.32.1-3.6a14.62,14.62,0,0,0-.58-4.74,7.28,7.28,0,0,1-.31-1.58h.93a4.17,4.17,0,0,0,2.87-1.57c.46-.7-.45-2.11-1-2.55a3,3,0,0,1,1.66,0C114.22,101.65,114.83,101.7,115.37,101.79Z"/><path class="cls-6" d="M116.1,105.43c-.49,2-1.55,6-2.08,7.33a8.76,8.76,0,0,1-2.79,3.49.63.63,0,0,1-.81-.22c2.29-1.58,3.16-5,4-8.1a37.65,37.65,0,0,0,1-6.14,3.12,3.12,0,0,1,1,.28C116.87,102.34,116.59,103.39,116.1,105.43Z"/><path class="cls-5" d="M94,46.31c-.1,1.11-.24,2.89-.23,4a39.84,39.84,0,0,1-1.12,6.13,4,4,0,0,1-2,.16c-.37-.11-1.44-.36-2.51-.61-.25-4,2-8.18,2.66-9.22-1.35,3.62-1.94,7.48-1.68,8.38.37,1.27,2.06.68,1.83.16s1-4.52,1.37-5.47C92.54,49.24,93.27,47.8,94,46.31Z"/><path class="cls-4" d="M95.1,114.93a23.63,23.63,0,0,1-3.52.21c-1.11,0-4.57.13-7.38.2a5.28,5.28,0,0,1-3.14-.77,1.53,1.53,0,0,1,.84-.42,23.16,23.16,0,0,0,4.3-1.76c.77-.4,1.33-1.63,3.25-1.66,0,.16,1.45,2.33,2.66,2.29.85,0,1.72-1.28,1.71-1.36a.56.56,0,0,1,.78.15A10.51,10.51,0,0,1,95.1,114.93Z"/><path class="cls-2" d="M95,116.18c-.32.26-3.84.26-5.13.26s-5.53.35-6.34.28-2.72-.5-2.78-1a1.37,1.37,0,0,1,.3-1.12,5.28,5.28,0,0,0,3.14.77c2.81-.06,6.27-.16,7.38-.2a23.63,23.63,0,0,0,3.52-.21A2.5,2.5,0,0,1,95,116.18Z"/><path class="cls-11" d="M101.3,53a29.08,29.08,0,0,1-2.78,6.28,7.44,7.44,0,0,1-1.08,1.47,6.46,6.46,0,0,1-1.2,1.1c-1.77,1.24-4.92.25-7.73-1.14a43.23,43.23,0,0,1-5.8-3.52h-.12a6.64,6.64,0,0,1,0-2.1c.22-.91,1.48-1.37,2.1-1.52.24.56.49,1.45,1.09,1.67a18,18,0,0,0,2.35.75c1.07.25,2.14.49,2.51.61a4,4,0,0,0,2-.16,39.84,39.84,0,0,0,1.12-6.13c0-1.08.13-2.86.23-4h0c.4-.84.78-1.69,1.05-2.4h0a5.8,5.8,0,0,1,4-.46h0a3.5,3.5,0,0,1,1.67,2.07A25.33,25.33,0,0,1,101.3,53Z"/><path class="cls-11" d="M82.91,25.53a2.82,2.82,0,0,0-2.75,2.78,4.12,4.12,0,0,0,.11.82,21.22,21.22,0,0,0,2.39,5.2c.28.47.66.46.92,0,.57-1.08,2.25-4.69,2.21-6.14A2.78,2.78,0,0,0,82.91,25.53Zm.15,4.36a1.55,1.55,0,1,1,1.51-1.59A1.55,1.55,0,0,1,83.06,29.89Z"/><path class="cls-19" d="M85.21,33.66c.87.2,1.44.53,1.45.93,0,.66-1.54,1.23-3.46,1.28s-3.51-.45-3.52-1.11c0-.37.47-.71,1.22-.94"/></svg>